<?xml version="1.0" standalone="no"?>
<!DOCTYPE svg PUBLIC "-//W3C//DTD SVG 20010904//EN"
 "http://www.w3.org/TR/2001/REC-SVG-20010904/DTD/svg10.dtd">
<svg version="1.0" xmlns="http://www.w3.org/2000/svg"
 width="512.000000pt" height="512.000000pt" viewBox="0 0 512.000000 512.000000"
 preserveAspectRatio="xMidYMid meet">

<g transform="translate(0.000000,512.000000) scale(0.100000,-0.100000)"
fill="#000000" stroke="none">
<path d="M673 5105 c-40 -28 -38 -66 7 -161 49 -105 151 -262 220 -337 l51
-55 -66 -115 c-131 -229 -240 -516 -290 -760 -32 -158 -32 -181 1 -214 20 -20
31 -24 57 -19 17 4 37 12 44 19 7 7 24 69 37 138 56 292 173 593 324 833 39
62 62 109 62 127 0 22 -18 48 -74 109 -76 82 -184 230 -169 230 5 0 56 -16
114 -35 306 -103 736 -184 1149 -216 211 -16 835 -7 1030 15 332 37 682 109
950 195 68 22 126 38 128 36 8 -8 -100 -153 -169 -229 -54 -58 -72 -85 -72
-106 0 -16 20 -60 50 -106 164 -256 301 -618 349 -924 23 -145 23 -424 0 -549
-48 -261 -149 -463 -317 -631 -278 -278 -725 -432 -1331 -459 -182 -8 -496 -1
-618 14 -916 112 -1386 516 -1436 1234 -8 122 -21 145 -79 145 -28 0 -43 -6
-58 -24 -18 -23 -19 -34 -13 -128 17 -269 92 -508 218 -695 l46 -68 -33 -78
c-218 -517 -201 -962 45 -1221 97 -101 253 -187 413 -226 52 -13 66 -22 88
-52 55 -76 114 -134 200 -199 l88 -66 -31 -45 c-53 -76 -71 -137 -72 -234 -1
-77 2 -90 21 -109 26 -27 75 -29 102 -5 14 13 19 35 23 99 3 66 10 92 32 134
16 29 38 61 50 71 19 18 24 18 54 5 l34 -14 -18 -27 c-86 -130 -120 -281 -74
-330 27 -29 80 -29 105 -2 11 12 22 46 27 81 9 69 54 162 98 204 l29 28 -26
-74 c-42 -120 -32 -257 20 -294 32 -22 65 -18 93 10 24 24 25 30 18 78 -12 87
-1 154 34 212 l19 31 104 -12 c134 -16 474 -16 607 0 l104 12 26 -51 c24 -45
27 -61 27 -153 0 -97 2 -105 24 -123 46 -37 98 -16 120 50 23 71 13 164 -34
296 -4 12 8 5 29 -19 48 -53 84 -131 92 -201 9 -72 31 -97 81 -93 25 2 42 11
56 30 19 25 20 33 10 98 -11 70 -59 188 -91 223 -16 18 -16 20 3 33 34 25 60
17 92 -29 43 -62 55 -99 57 -177 1 -57 5 -74 23 -92 29 -28 80 -29 103 0 52
64 19 255 -65 368 -15 21 -14 23 47 67 73 52 176 153 220 213 27 37 37 43 111
63 45 12 129 45 187 73 89 44 118 65 191 138 93 93 141 171 178 295 29 92 42
238 32 354 -7 85 -11 97 -35 118 -33 28 -56 29 -89 3 l-26 -21 1 -152 c1 -171
-13 -250 -62 -351 -55 -115 -165 -213 -304 -273 -28 -12 -52 -21 -53 -20 -1 1
10 40 23 87 73 250 69 583 -10 877 l-14 53 66 44 c37 25 100 72 139 106 84 71
71 78 126 -75 25 -68 38 -93 59 -104 34 -20 77 -6 97 31 14 24 13 33 -8 100
-13 40 -39 110 -58 155 l-35 81 41 59 c309 454 302 1174 -18 1838 -37 77 -86
171 -109 209 -23 37 -42 70 -42 72 0 3 24 33 54 68 77 92 150 203 201 308 53
107 57 147 19 177 -35 27 -48 27 -133 -9 -349 -144 -864 -255 -1346 -290 -179
-13 -654 -13 -821 0 -479 37 -933 132 -1292 269 -147 56 -158 58 -189 36z
m315 -2916 c32 -27 92 -74 135 -102 67 -45 77 -55 74 -77 -3 -14 -16 -82 -31
-151 -36 -173 -37 -226 -7 -250 50 -41 115 -13 125 53 16 107 37 218 48 255
l13 42 67 -29 c104 -45 272 -96 404 -124 460 -97 1082 -93 1534 9 107 24 319
91 401 128 l36 16 22 -99 c48 -228 53 -473 12 -650 -113 -490 -536 -740 -1252
-740 -92 0 -213 5 -269 11 -589 60 -929 328 -1005 791 -23 139 -23 138 -57
152 -43 18 -82 4 -99 -35 -15 -37 6 -181 44 -301 l24 -76 -41 14 c-72 26 -169
90 -227 151 -160 167 -198 425 -113 763 22 90 94 300 102 300 2 0 29 -23 60
-51z"/>
<path d="M1711 4355 c-283 -62 -472 -209 -603 -470 -131 -259 -163 -635 -83
-953 31 -121 108 -280 172 -358 95 -114 250 -209 408 -250 106 -27 295 -25
399 4 98 28 204 80 277 136 l55 43 47 -49 c112 -118 249 -118 360 1 l45 48 43
-34 c204 -156 468 -209 709 -142 263 72 447 249 535 514 105 314 92 703 -35
997 -149 346 -462 542 -840 525 -205 -9 -391 -90 -556 -242 l-79 -72 -65 60
c-136 125 -291 209 -453 243 -85 17 -251 17 -336 -1z m326 -150 c35 -8 92 -28
127 -44 119 -54 173 -98 348 -283 30 -32 67 -36 95 -10 11 9 42 43 69 76 102
123 272 229 422 262 56 12 102 15 181 11 190 -9 337 -72 461 -197 167 -168
251 -404 253 -710 2 -400 -125 -668 -373 -788 -89 -44 -204 -72 -290 -72 -132
0 -288 55 -409 144 -62 47 -63 48 -57 84 27 148 14 258 -40 343 -96 152 -367
172 -490 37 -62 -69 -79 -119 -79 -233 0 -55 3 -118 7 -140 8 -39 7 -41 -45
-81 -73 -58 -150 -99 -237 -126 -112 -34 -274 -32 -385 6 -262 90 -400 281
-451 627 -19 133 -15 317 11 444 71 348 264 574 550 644 98 24 245 27 332 6z
m608 -1225 c62 -30 80 -68 79 -170 -1 -107 -28 -183 -88 -246 -54 -56 -90 -59
-137 -12 -85 86 -127 275 -80 367 38 74 141 102 226 61z"/>
<path d="M1697 3609 c-148 -78 -169 -353 -37 -473 53 -48 106 -63 164 -46 160
45 220 301 106 458 -56 77 -153 103 -233 61z"/>
<path d="M3272 3614 c-88 -45 -138 -153 -130 -284 13 -215 198 -320 335 -188
51 50 76 120 77 214 0 72 -4 89 -33 148 -23 48 -44 74 -72 93 -51 34 -130 41
-177 17z"/>
</g>
</svg>
